<mxfile host="app.diagrams.net" agent="Mozilla/5.0 (X11; Linux x86_64) AppleWebKit/537.36 (KHTML, like Gecko) Chrome/127.0.0.0 Safari/537.36" version="24.7.16">
  <diagram name="prelab" id="YNo_YrYn_t4bKULRGUEt">
    <mxGraphModel dx="623" dy="1258" grid="1" gridSize="10" guides="1" tooltips="1" connect="1" arrows="1" fold="1" page="1" pageScale="1" pageWidth="583" pageHeight="413" math="0" shadow="0">
      <root>
        <mxCell id="0" />
        <mxCell id="1" parent="0" />
        <mxCell id="X3A-K_EHV2qNmoM4vE1s-1" value="x + yz = (x + y)(x + z)&lt;div&gt;&lt;span style=&quot;white-space: pre;&quot;&gt;&#x9;&lt;/span&gt;= x(x + y) + z(x + y)&lt;/div&gt;&lt;div&gt;&lt;span style=&quot;white-space: pre;&quot;&gt;&#x9;&lt;/span&gt;= xx + xy + xz + yz&amp;nbsp;&lt;/div&gt;&lt;div&gt;&lt;span style=&quot;white-space: pre;&quot;&gt;&#x9;&lt;/span&gt;= x + xy + xz + yz (absorption)&lt;/div&gt;&lt;div&gt;&lt;span style=&quot;white-space: pre;&quot;&gt;&#x9;&lt;/span&gt;= x + xz + yz (absorption)&lt;/div&gt;&lt;div&gt;&lt;span style=&quot;white-space: pre;&quot;&gt;&#x9;&lt;/span&gt;= x + yz&lt;/div&gt;" style="text;html=1;align=left;verticalAlign=middle;resizable=0;points=[];autosize=1;strokeColor=none;fillColor=none;" vertex="1" parent="1">
          <mxGeometry x="40" y="23" width="210" height="100" as="geometry" />
        </mxCell>
        <mxCell id="X3A-K_EHV2qNmoM4vE1s-3" value="xy + yz + !xz = xy + !xz&lt;div&gt;xy + !xz = xy + !xz (absorption)&lt;/div&gt;" style="text;html=1;align=left;verticalAlign=middle;resizable=0;points=[];autosize=1;strokeColor=none;fillColor=none;" vertex="1" parent="1">
          <mxGeometry x="40" y="167" width="190" height="40" as="geometry" />
        </mxCell>
        <mxCell id="X3A-K_EHV2qNmoM4vE1s-14" value="!(((a + b) + !c + !d) * (!(ab) * !c * !d)) = !(a + b) * cd + ab + c + d&lt;div&gt;&lt;br&gt;&lt;/div&gt;&lt;div&gt;RHS&amp;nbsp;&lt;/div&gt;&lt;div&gt;!(a + b) * cd + ab + c + d&lt;br&gt;&lt;/div&gt;&lt;div&gt;&lt;br&gt;&lt;/div&gt;&lt;div&gt;LHS&lt;/div&gt;&lt;div&gt;&lt;div style=&quot;&quot;&gt;&lt;br&gt;&lt;/div&gt;&lt;div&gt;!((a + c) + (!c + !d)) + !(!(ab) * !c * !d)&lt;/div&gt;&lt;div&gt;!(a + b) * !(!c + !d) + !!(ab) + !!c + !!d&lt;/div&gt;&lt;div&gt;!(a + b) * c * d + ab + c + d&lt;/div&gt;&lt;div&gt;&lt;span style=&quot;background-color: initial;&quot;&gt;&lt;br&gt;&lt;/span&gt;&lt;/div&gt;&lt;div&gt;&lt;span style=&quot;background-color: initial;&quot;&gt;LHS == RHS&lt;/span&gt;&lt;/div&gt;&lt;/div&gt;" style="text;html=1;align=left;verticalAlign=middle;resizable=0;points=[];autosize=1;strokeColor=none;fillColor=none;" vertex="1" parent="1">
          <mxGeometry x="60" y="-280" width="350" height="190" as="geometry" />
        </mxCell>
        <mxCell id="X3A-K_EHV2qNmoM4vE1s-15" value="let a = x1, b = x2, c = x3, d = x4&lt;div&gt;&lt;br&gt;f&lt;span style=&quot;white-space: pre;&quot;&gt;&#x9;&lt;/span&gt;= a * !b * !c + abd + a * !b * c * !d&lt;/div&gt;&lt;div&gt;&lt;span style=&quot;white-space: pre;&quot;&gt;&#x9;&lt;/span&gt;= a(!b!c + bd + !bc!d)&lt;/div&gt;&lt;div&gt;&lt;span style=&quot;white-space: pre;&quot;&gt;&#x9;&lt;/span&gt;= a(!b!c + !bc!d + bd)&lt;br&gt;&lt;/div&gt;&lt;div&gt;&lt;span style=&quot;white-space: pre;&quot;&gt;&#x9;&lt;/span&gt;= a(!b(!c + c!d) + bd)&lt;br&gt;&lt;/div&gt;&lt;div&gt;&lt;span style=&quot;white-space: pre;&quot;&gt;&#x9;&lt;/span&gt;= a(!b(!c + !d) + bd)&lt;br&gt;&lt;/div&gt;&lt;div&gt;&lt;br&gt;&lt;/div&gt;&lt;div&gt;i.e&amp;nbsp;&lt;/div&gt;&lt;div&gt;x1 &amp;amp; (((!x2) &amp;amp; ((!x3) | (!x4))) | (x2 &amp;amp; x4))&lt;/div&gt;" style="text;html=1;align=left;verticalAlign=middle;resizable=0;points=[];autosize=1;strokeColor=none;fillColor=none;" vertex="1" parent="1">
          <mxGeometry x="292" y="-190" width="230" height="160" as="geometry" />
        </mxCell>
        <mxCell id="X3A-K_EHV2qNmoM4vE1s-18" value="f(x1, x2, x3)&lt;span style=&quot;white-space: pre;&quot;&gt;&#x9;&lt;/span&gt;= sum ( m(1, 3, 4, 6, 7) )&lt;div&gt;&lt;span style=&quot;white-space: pre;&quot;&gt;&#x9;&lt;/span&gt;&lt;span style=&quot;white-space: pre;&quot;&gt;&#x9;&lt;span style=&quot;white-space: pre;&quot;&gt;&#x9;&lt;/span&gt;= (!x1 * !x2 * x3) + (!x1 * x&lt;/span&gt;2 * x3) + (x1 * !x2 * !x3) + (x1 * x2 * !x3) + (x1 * x2 * x3)&lt;br&gt;&lt;/div&gt;&lt;div&gt;&lt;span style=&quot;white-space: pre;&quot;&gt;&#x9;&lt;/span&gt;&lt;span style=&quot;white-space: pre;&quot;&gt;&#x9;&lt;/span&gt;&lt;span style=&quot;white-space: pre;&quot;&gt;&#x9;&lt;/span&gt;=&amp;nbsp;&lt;span style=&quot;background-color: initial; white-space-collapse: preserve;&quot;&gt;(!x1 * !x2 * x3) + (!x1 * x&lt;/span&gt;&lt;span style=&quot;background-color: initial;&quot;&gt;2 * x3) + (x1 * !x2 * !x3) + (x1 * x2)&lt;/span&gt;&lt;br&gt;&lt;/div&gt;&lt;div&gt;&lt;span style=&quot;white-space-collapse: preserve;&quot;&gt;&#x9;&lt;/span&gt;&lt;span style=&quot;white-space-collapse: preserve;&quot;&gt;&#x9;&lt;/span&gt;&lt;span style=&quot;white-space-collapse: preserve;&quot;&gt;&#x9;&lt;/span&gt;=&amp;nbsp;&lt;span style=&quot;background-color: initial; white-space-collapse: preserve;&quot;&gt;(!x1 * &lt;/span&gt;&lt;span style=&quot;background-color: initial;&quot;&gt;x3) + (x1 * !x2 * !x3) + (x1 * x2)&lt;/span&gt;&lt;/div&gt;&lt;div&gt;&lt;span style=&quot;background-color: initial;&quot;&gt;&lt;span style=&quot;white-space: pre;&quot;&gt;&#x9;&lt;/span&gt;&lt;span style=&quot;white-space: pre;&quot;&gt;&#x9;&lt;/span&gt;&lt;span style=&quot;white-space: pre;&quot;&gt;&#x9;&lt;/span&gt;=&amp;nbsp;&lt;/span&gt;&lt;span style=&quot;background-color: initial; white-space-collapse: preserve;&quot;&gt;(!x1 * &lt;/span&gt;&lt;span style=&quot;background-color: initial;&quot;&gt;x3) + x1 * (!x2 * !x3 + x2)&lt;/span&gt;&lt;span style=&quot;background-color: initial;&quot;&gt;&lt;br&gt;&lt;/span&gt;&lt;/div&gt;&lt;div&gt;&lt;span style=&quot;background-color: initial;&quot;&gt;&lt;span style=&quot;white-space: pre;&quot;&gt;&#x9;&lt;/span&gt;&lt;span style=&quot;white-space: pre;&quot;&gt;&#x9;&lt;/span&gt;&lt;span style=&quot;white-space: pre;&quot;&gt;&#x9;&lt;/span&gt;=&amp;nbsp;&lt;/span&gt;&lt;span style=&quot;white-space-collapse: preserve; background-color: initial;&quot;&gt;!x1 * &lt;/span&gt;&lt;span style=&quot;background-color: initial;&quot;&gt;x3 + x1 * (x2 + !x3)&lt;/span&gt;&lt;span style=&quot;background-color: initial;&quot;&gt;&lt;br&gt;&lt;/span&gt;&lt;/div&gt;" style="text;html=1;align=left;verticalAlign=middle;resizable=0;points=[];autosize=1;strokeColor=none;fillColor=none;" vertex="1" parent="1">
          <mxGeometry x="590" y="-390" width="530" height="100" as="geometry" />
        </mxCell>
        <mxCell id="X3A-K_EHV2qNmoM4vE1s-19" value="f(x1, x2, x3) &lt;span style=&quot;white-space: pre;&quot;&gt;&#x9;&lt;/span&gt;= mul ( M(0, 2, 5) )&lt;div&gt;&lt;span style=&quot;white-space: pre;&quot;&gt;&#x9;&lt;/span&gt;&lt;span style=&quot;white-space: pre;&quot;&gt;&#x9;&lt;span style=&quot;white-space: pre;&quot;&gt;&#x9;&lt;/span&gt;= (!x1 + !x2 + !x3) * (!x1 + x2 + !x3) * (x1 + !x2 + x3)&lt;/span&gt;&lt;br&gt;&lt;/div&gt;&lt;div&gt;&lt;span style=&quot;white-space: pre;&quot;&gt;&#x9;&lt;/span&gt;&lt;span style=&quot;white-space: pre;&quot;&gt;&#x9;&lt;/span&gt;&lt;span style=&quot;white-space: pre;&quot;&gt;&#x9;&lt;/span&gt;= (!x2 +&amp;nbsp;&lt;span style=&quot;background-color: initial;&quot;&gt;(!x1 + !x3)&lt;/span&gt;&lt;span style=&quot;background-color: initial;&quot;&gt;) * (x2 +&amp;nbsp;&lt;/span&gt;&lt;span style=&quot;background-color: initial;&quot;&gt;(!x1 + !x3)&lt;/span&gt;&lt;span style=&quot;background-color: initial;&quot;&gt;) * (x1 + !x2 + x3)]&lt;/span&gt;&lt;/div&gt;&lt;div&gt;&lt;span style=&quot;white-space: pre;&quot;&gt;&#x9;&lt;/span&gt;&lt;span style=&quot;white-space: pre;&quot;&gt;&#x9;&lt;/span&gt;&lt;span style=&quot;white-space: pre;&quot;&gt;&#x9;&lt;/span&gt;=&amp;nbsp;&lt;span style=&quot;background-color: initial;&quot;&gt;(!x1 + !x3)&lt;/span&gt;&lt;span style=&quot;background-color: initial;&quot;&gt;&amp;nbsp;* (x1 + !x2 + x3)&lt;/span&gt;&lt;/div&gt;" style="text;html=1;align=left;verticalAlign=middle;resizable=0;points=[];autosize=1;strokeColor=none;fillColor=none;" vertex="1" parent="1">
          <mxGeometry x="583" y="-270" width="400" height="70" as="geometry" />
        </mxCell>
        <mxCell id="X3A-K_EHV2qNmoM4vE1s-20" value="f(x1, x2, x3) = sum ( m(1, 2, 3, 5) )&lt;div&gt;&lt;br&gt;&lt;/div&gt;&lt;div&gt;SOP&lt;br&gt;m(1) = !x1 * !x2 * x3&lt;/div&gt;&lt;div&gt;m(2) = !x1 * x2 * !x3&lt;/div&gt;&lt;div&gt;m(3) = !x1 * x2 * x3&lt;/div&gt;&lt;div&gt;m(5) = x1 * !x2 * x3&lt;/div&gt;&lt;div&gt;&lt;br&gt;&lt;/div&gt;&lt;div&gt;&lt;span style=&quot;white-space: pre;&quot;&gt;&#x9;&lt;/span&gt;x2/x3&lt;br&gt;&lt;/div&gt;&lt;div&gt;x1&lt;span style=&quot;white-space: pre;&quot;&gt;&#x9;&lt;/span&gt;00&lt;span style=&quot;white-space: pre;&quot;&gt;&#x9;&lt;/span&gt;01&lt;span style=&quot;white-space: pre;&quot;&gt;&#x9;&lt;/span&gt;11&lt;span style=&quot;white-space: pre;&quot;&gt;&#x9;&lt;/span&gt;10&lt;/div&gt;&lt;div&gt;0&lt;span style=&quot;white-space: pre;&quot;&gt;&#x9;&lt;/span&gt;0&lt;span style=&quot;white-space: pre;&quot;&gt;&#x9;&lt;/span&gt;1&lt;span style=&quot;white-space: pre;&quot;&gt;&#x9;&lt;/span&gt;1&lt;span style=&quot;white-space: pre;&quot;&gt;&#x9;&lt;/span&gt;1&lt;/div&gt;&lt;div&gt;1&lt;span style=&quot;white-space: pre;&quot;&gt;&#x9;&lt;/span&gt;0&lt;span style=&quot;white-space: pre;&quot;&gt;&#x9;&lt;/span&gt;1&lt;span style=&quot;white-space: pre;&quot;&gt;&#x9;&lt;/span&gt;0&lt;span style=&quot;white-space: pre;&quot;&gt;&#x9;&lt;/span&gt;0&lt;br&gt;&lt;br&gt;&lt;/div&gt;&lt;div&gt;f(x1, x2, x3) = !x2 * x3 + !x1 * x2&lt;/div&gt;&lt;div&gt;&lt;br&gt;&lt;/div&gt;&lt;div&gt;POS&lt;br&gt;M(0) = x1 + x2 + x3&lt;/div&gt;&lt;div&gt;M(4) = !x1 + x2 + x3&lt;/div&gt;&lt;div&gt;M(6) = !x1 + !x2 + x3&lt;br&gt;M(7) = !x1 + !x2 + !x3&lt;/div&gt;&lt;div&gt;&lt;br&gt;&lt;/div&gt;&lt;div&gt;&lt;div&gt;&lt;span style=&quot;white-space-collapse: preserve;&quot;&gt;&#x9;&lt;/span&gt;x2/x3&lt;br&gt;&lt;/div&gt;&lt;div&gt;x1&lt;span style=&quot;white-space-collapse: preserve;&quot;&gt;&#x9;&lt;/span&gt;00&lt;span style=&quot;white-space-collapse: preserve;&quot;&gt;&#x9;&lt;/span&gt;01&lt;span style=&quot;white-space-collapse: preserve;&quot;&gt;&#x9;&lt;/span&gt;11&lt;span style=&quot;white-space-collapse: preserve;&quot;&gt;&#x9;&lt;/span&gt;10&lt;/div&gt;&lt;div&gt;0&lt;span style=&quot;white-space-collapse: preserve;&quot;&gt;&#x9;&lt;/span&gt;1&lt;span style=&quot;white-space-collapse: preserve;&quot;&gt;&#x9;&lt;/span&gt;0&lt;span style=&quot;white-space-collapse: preserve;&quot;&gt;&#x9;&lt;/span&gt;1&lt;span style=&quot;white-space-collapse: preserve;&quot;&gt;&#x9;&lt;/span&gt;1&lt;/div&gt;&lt;div&gt;1&lt;span style=&quot;white-space-collapse: preserve;&quot;&gt;&#x9;&lt;/span&gt;0&lt;span style=&quot;white-space-collapse: preserve;&quot;&gt;&#x9;&lt;/span&gt;0&lt;span style=&quot;white-space-collapse: preserve;&quot;&gt;&#x9;&lt;/span&gt;1&lt;span style=&quot;white-space-collapse: preserve;&quot;&gt;&#x9;&lt;/span&gt;0&lt;/div&gt;&lt;/div&gt;&lt;div&gt;&lt;br&gt;&lt;/div&gt;&lt;div&gt;f(x1, x2, x3) = (x1 + !x2) * (!x2 + x3) * (x1 + x2 + !x3)&lt;/div&gt;" style="text;html=1;align=left;verticalAlign=middle;resizable=0;points=[];autosize=1;strokeColor=none;fillColor=none;" vertex="1" parent="1">
          <mxGeometry x="650" y="-110" width="300" height="400" as="geometry" />
        </mxCell>
        <mxCell id="X3A-K_EHV2qNmoM4vE1s-21" value="" style="verticalLabelPosition=bottom;shadow=0;dashed=0;align=center;html=1;verticalAlign=top;shape=mxgraph.electrical.logic_gates.logic_gate;operation=xor;" vertex="1" parent="1">
          <mxGeometry x="180" y="330" width="100" height="60" as="geometry" />
        </mxCell>
        <mxCell id="X3A-K_EHV2qNmoM4vE1s-45" style="edgeStyle=orthogonalEdgeStyle;rounded=0;orthogonalLoop=1;jettySize=auto;html=1;exitX=1;exitY=0.5;exitDx=0;exitDy=0;exitPerimeter=0;endArrow=none;endFill=0;" edge="1" parent="1" source="X3A-K_EHV2qNmoM4vE1s-23">
          <mxGeometry relative="1" as="geometry">
            <mxPoint x="620" y="370" as="targetPoint" />
          </mxGeometry>
        </mxCell>
        <mxCell id="X3A-K_EHV2qNmoM4vE1s-23" value="" style="verticalLabelPosition=bottom;shadow=0;dashed=0;align=center;html=1;verticalAlign=top;shape=mxgraph.electrical.logic_gates.logic_gate;operation=xor;" vertex="1" parent="1">
          <mxGeometry x="460" y="340" width="100" height="60" as="geometry" />
        </mxCell>
        <mxCell id="X3A-K_EHV2qNmoM4vE1s-24" value="" style="verticalLabelPosition=bottom;shadow=0;dashed=0;align=center;html=1;verticalAlign=top;shape=mxgraph.electrical.logic_gates.logic_gate;operation=and;negating=1;negSize=0.15;" vertex="1" parent="1">
          <mxGeometry x="370" y="430" width="100" height="60" as="geometry" />
        </mxCell>
        <mxCell id="X3A-K_EHV2qNmoM4vE1s-30" style="edgeStyle=orthogonalEdgeStyle;rounded=0;orthogonalLoop=1;jettySize=auto;html=1;exitX=1;exitY=0.5;exitDx=0;exitDy=0;exitPerimeter=0;endArrow=none;endFill=0;" edge="1" parent="1" source="X3A-K_EHV2qNmoM4vE1s-26">
          <mxGeometry relative="1" as="geometry">
            <mxPoint x="630" y="500" as="targetPoint" />
          </mxGeometry>
        </mxCell>
        <mxCell id="X3A-K_EHV2qNmoM4vE1s-26" value="" style="verticalLabelPosition=bottom;shadow=0;dashed=0;align=center;html=1;verticalAlign=top;shape=mxgraph.electrical.logic_gates.logic_gate;operation=and;negating=1;negSize=0.15;" vertex="1" parent="1">
          <mxGeometry x="470" y="470" width="100" height="60" as="geometry" />
        </mxCell>
        <mxCell id="X3A-K_EHV2qNmoM4vE1s-27" value="" style="verticalLabelPosition=bottom;shadow=0;dashed=0;align=center;html=1;verticalAlign=top;shape=mxgraph.electrical.logic_gates.logic_gate;operation=and;negating=1;negSize=0.15;" vertex="1" parent="1">
          <mxGeometry x="370" y="510" width="100" height="60" as="geometry" />
        </mxCell>
        <mxCell id="X3A-K_EHV2qNmoM4vE1s-28" style="edgeStyle=orthogonalEdgeStyle;rounded=0;orthogonalLoop=1;jettySize=auto;html=1;exitX=1;exitY=0.5;exitDx=0;exitDy=0;exitPerimeter=0;entryX=0;entryY=0.75;entryDx=0;entryDy=0;entryPerimeter=0;endArrow=none;endFill=0;" edge="1" parent="1" source="X3A-K_EHV2qNmoM4vE1s-27" target="X3A-K_EHV2qNmoM4vE1s-26">
          <mxGeometry relative="1" as="geometry" />
        </mxCell>
        <mxCell id="X3A-K_EHV2qNmoM4vE1s-29" style="edgeStyle=orthogonalEdgeStyle;rounded=0;orthogonalLoop=1;jettySize=auto;html=1;exitX=1;exitY=0.5;exitDx=0;exitDy=0;exitPerimeter=0;entryX=0;entryY=0.25;entryDx=0;entryDy=0;entryPerimeter=0;endArrow=none;endFill=0;" edge="1" parent="1" source="X3A-K_EHV2qNmoM4vE1s-24" target="X3A-K_EHV2qNmoM4vE1s-26">
          <mxGeometry relative="1" as="geometry" />
        </mxCell>
        <mxCell id="X3A-K_EHV2qNmoM4vE1s-31" value="Carry Out" style="text;html=1;align=center;verticalAlign=middle;resizable=0;points=[];autosize=1;strokeColor=none;fillColor=none;" vertex="1" parent="1">
          <mxGeometry x="550" y="468" width="80" height="30" as="geometry" />
        </mxCell>
        <mxCell id="X3A-K_EHV2qNmoM4vE1s-32" style="edgeStyle=orthogonalEdgeStyle;rounded=0;orthogonalLoop=1;jettySize=auto;html=1;exitX=0;exitY=0.25;exitDx=0;exitDy=0;exitPerimeter=0;entryX=0;entryY=0.75;entryDx=0;entryDy=0;entryPerimeter=0;endArrow=none;endFill=0;" edge="1" parent="1" source="X3A-K_EHV2qNmoM4vE1s-24" target="X3A-K_EHV2qNmoM4vE1s-23">
          <mxGeometry relative="1" as="geometry" />
        </mxCell>
        <mxCell id="X3A-K_EHV2qNmoM4vE1s-36" value="" style="endArrow=none;html=1;rounded=0;" edge="1" parent="1">
          <mxGeometry width="50" height="50" relative="1" as="geometry">
            <mxPoint x="300" y="410" as="sourcePoint" />
            <mxPoint x="350" y="410" as="targetPoint" />
          </mxGeometry>
        </mxCell>
        <mxCell id="X3A-K_EHV2qNmoM4vE1s-37" value="Carry In" style="text;html=1;align=center;verticalAlign=middle;resizable=0;points=[];autosize=1;strokeColor=none;fillColor=none;" vertex="1" parent="1">
          <mxGeometry x="285" y="383" width="70" height="30" as="geometry" />
        </mxCell>
        <mxCell id="X3A-K_EHV2qNmoM4vE1s-38" style="edgeStyle=orthogonalEdgeStyle;rounded=0;orthogonalLoop=1;jettySize=auto;html=1;exitX=0;exitY=0.75;exitDx=0;exitDy=0;exitPerimeter=0;entryX=0;entryY=0.25;entryDx=0;entryDy=0;entryPerimeter=0;endArrow=none;endFill=0;" edge="1" parent="1" source="X3A-K_EHV2qNmoM4vE1s-24" target="X3A-K_EHV2qNmoM4vE1s-23">
          <mxGeometry relative="1" as="geometry">
            <Array as="points">
              <mxPoint x="280" y="475" />
              <mxPoint x="280" y="355" />
            </Array>
          </mxGeometry>
        </mxCell>
        <mxCell id="X3A-K_EHV2qNmoM4vE1s-39" style="edgeStyle=orthogonalEdgeStyle;rounded=0;orthogonalLoop=1;jettySize=auto;html=1;exitX=0;exitY=0.75;exitDx=0;exitDy=0;exitPerimeter=0;entryX=0;entryY=0.25;entryDx=0;entryDy=0;entryPerimeter=0;endArrow=none;endFill=0;" edge="1" parent="1" source="X3A-K_EHV2qNmoM4vE1s-21" target="X3A-K_EHV2qNmoM4vE1s-27">
          <mxGeometry relative="1" as="geometry" />
        </mxCell>
        <mxCell id="X3A-K_EHV2qNmoM4vE1s-40" style="edgeStyle=orthogonalEdgeStyle;rounded=0;orthogonalLoop=1;jettySize=auto;html=1;exitX=0;exitY=0.25;exitDx=0;exitDy=0;exitPerimeter=0;entryX=0;entryY=0.75;entryDx=0;entryDy=0;entryPerimeter=0;endArrow=none;endFill=0;" edge="1" parent="1" source="X3A-K_EHV2qNmoM4vE1s-21" target="X3A-K_EHV2qNmoM4vE1s-27">
          <mxGeometry relative="1" as="geometry">
            <Array as="points">
              <mxPoint x="80" y="345" />
              <mxPoint x="80" y="555" />
            </Array>
          </mxGeometry>
        </mxCell>
        <mxCell id="X3A-K_EHV2qNmoM4vE1s-41" value="" style="endArrow=none;html=1;rounded=0;" edge="1" parent="1">
          <mxGeometry width="50" height="50" relative="1" as="geometry">
            <mxPoint x="160" y="390" as="sourcePoint" />
            <mxPoint x="100" y="390" as="targetPoint" />
          </mxGeometry>
        </mxCell>
        <mxCell id="X3A-K_EHV2qNmoM4vE1s-42" value="" style="endArrow=none;html=1;rounded=0;" edge="1" parent="1">
          <mxGeometry width="50" height="50" relative="1" as="geometry">
            <mxPoint x="80" y="370" as="sourcePoint" />
            <mxPoint x="20" y="370" as="targetPoint" />
          </mxGeometry>
        </mxCell>
        <mxCell id="X3A-K_EHV2qNmoM4vE1s-43" value="A" style="text;html=1;align=center;verticalAlign=middle;resizable=0;points=[];autosize=1;strokeColor=none;fillColor=none;" vertex="1" parent="1">
          <mxGeometry x="35" y="338" width="30" height="30" as="geometry" />
        </mxCell>
        <mxCell id="X3A-K_EHV2qNmoM4vE1s-44" value="B" style="text;html=1;align=center;verticalAlign=middle;resizable=0;points=[];autosize=1;strokeColor=none;fillColor=none;" vertex="1" parent="1">
          <mxGeometry x="110" y="360" width="30" height="30" as="geometry" />
        </mxCell>
        <mxCell id="X3A-K_EHV2qNmoM4vE1s-48" value="Sum" style="text;html=1;align=center;verticalAlign=middle;resizable=0;points=[];autosize=1;strokeColor=none;fillColor=none;" vertex="1" parent="1">
          <mxGeometry x="550" y="338" width="50" height="30" as="geometry" />
        </mxCell>
        <mxCell id="X3A-K_EHV2qNmoM4vE1s-55" style="edgeStyle=orthogonalEdgeStyle;rounded=0;orthogonalLoop=1;jettySize=auto;html=1;exitX=0;exitY=0.25;exitDx=0;exitDy=0;exitPerimeter=0;endArrow=none;endFill=0;entryX=0;entryY=0.75;entryDx=0;entryDy=0;entryPerimeter=0;" edge="1" parent="1" source="X3A-K_EHV2qNmoM4vE1s-49" target="X3A-K_EHV2qNmoM4vE1s-52">
          <mxGeometry relative="1" as="geometry">
            <mxPoint x="30" y="895" as="targetPoint" />
            <Array as="points">
              <mxPoint x="40" y="895" />
              <mxPoint x="40" y="1080" />
              <mxPoint x="120" y="1080" />
            </Array>
          </mxGeometry>
        </mxCell>
        <mxCell id="X3A-K_EHV2qNmoM4vE1s-56" style="edgeStyle=orthogonalEdgeStyle;rounded=0;orthogonalLoop=1;jettySize=auto;html=1;exitX=0;exitY=0.75;exitDx=0;exitDy=0;exitPerimeter=0;endArrow=none;endFill=0;entryX=0;entryY=0.25;entryDx=0;entryDy=0;entryPerimeter=0;" edge="1" parent="1" source="X3A-K_EHV2qNmoM4vE1s-49" target="X3A-K_EHV2qNmoM4vE1s-52">
          <mxGeometry relative="1" as="geometry">
            <mxPoint x="30" y="925" as="targetPoint" />
            <Array as="points">
              <mxPoint x="90" y="925" />
              <mxPoint x="90" y="1055" />
            </Array>
          </mxGeometry>
        </mxCell>
        <mxCell id="X3A-K_EHV2qNmoM4vE1s-49" value="" style="verticalLabelPosition=bottom;shadow=0;dashed=0;align=center;html=1;verticalAlign=top;shape=mxgraph.electrical.logic_gates.logic_gate;operation=xor;" vertex="1" parent="1">
          <mxGeometry x="120" y="880" width="100" height="60" as="geometry" />
        </mxCell>
        <mxCell id="X3A-K_EHV2qNmoM4vE1s-50" value="" style="verticalLabelPosition=bottom;shadow=0;dashed=0;align=center;html=1;verticalAlign=top;shape=mxgraph.electrical.logic_gates.logic_gate;operation=xor;" vertex="1" parent="1">
          <mxGeometry x="280" y="880" width="100" height="60" as="geometry" />
        </mxCell>
        <mxCell id="X3A-K_EHV2qNmoM4vE1s-51" style="edgeStyle=orthogonalEdgeStyle;rounded=0;orthogonalLoop=1;jettySize=auto;html=1;exitX=1;exitY=0.5;exitDx=0;exitDy=0;exitPerimeter=0;entryX=0;entryY=0.25;entryDx=0;entryDy=0;entryPerimeter=0;endArrow=none;endFill=0;" edge="1" parent="1" source="X3A-K_EHV2qNmoM4vE1s-49" target="X3A-K_EHV2qNmoM4vE1s-50">
          <mxGeometry relative="1" as="geometry" />
        </mxCell>
        <mxCell id="X3A-K_EHV2qNmoM4vE1s-52" value="" style="verticalLabelPosition=bottom;shadow=0;dashed=0;align=center;html=1;verticalAlign=top;shape=mxgraph.electrical.logic_gates.logic_gate;operation=or;negating=1;negSize=0.15;" vertex="1" parent="1">
          <mxGeometry x="120" y="1040" width="100" height="60" as="geometry" />
        </mxCell>
        <mxCell id="X3A-K_EHV2qNmoM4vE1s-53" value="" style="verticalLabelPosition=bottom;shadow=0;dashed=0;align=center;html=1;verticalAlign=top;shape=mxgraph.electrical.logic_gates.logic_gate;operation=or;negating=1;negSize=0.15;" vertex="1" parent="1">
          <mxGeometry x="280" y="973" width="100" height="60" as="geometry" />
        </mxCell>
        <mxCell id="X3A-K_EHV2qNmoM4vE1s-54" style="edgeStyle=orthogonalEdgeStyle;rounded=0;orthogonalLoop=1;jettySize=auto;html=1;exitX=1;exitY=0.5;exitDx=0;exitDy=0;exitPerimeter=0;entryX=0;entryY=0.75;entryDx=0;entryDy=0;entryPerimeter=0;endArrow=none;endFill=0;" edge="1" parent="1" source="X3A-K_EHV2qNmoM4vE1s-49" target="X3A-K_EHV2qNmoM4vE1s-53">
          <mxGeometry relative="1" as="geometry">
            <Array as="points">
              <mxPoint x="210" y="910" />
              <mxPoint x="210" y="1020" />
              <mxPoint x="280" y="1020" />
            </Array>
          </mxGeometry>
        </mxCell>
        <mxCell id="X3A-K_EHV2qNmoM4vE1s-57" value="A" style="text;html=1;align=center;verticalAlign=middle;resizable=0;points=[];autosize=1;strokeColor=none;fillColor=none;" vertex="1" parent="1">
          <mxGeometry y="868" width="30" height="30" as="geometry" />
        </mxCell>
        <mxCell id="X3A-K_EHV2qNmoM4vE1s-58" value="B" style="text;html=1;align=center;verticalAlign=middle;resizable=0;points=[];autosize=1;strokeColor=none;fillColor=none;" vertex="1" parent="1">
          <mxGeometry x="65" y="898" width="30" height="30" as="geometry" />
        </mxCell>
        <mxCell id="X3A-K_EHV2qNmoM4vE1s-59" value="" style="endArrow=none;html=1;rounded=0;exitX=0;exitY=0.75;exitDx=0;exitDy=0;exitPerimeter=0;" edge="1" parent="1" source="X3A-K_EHV2qNmoM4vE1s-49">
          <mxGeometry width="50" height="50" relative="1" as="geometry">
            <mxPoint x="270" y="1050" as="sourcePoint" />
            <mxPoint x="60" y="925" as="targetPoint" />
          </mxGeometry>
        </mxCell>
        <mxCell id="X3A-K_EHV2qNmoM4vE1s-60" value="" style="endArrow=none;html=1;rounded=0;exitX=0;exitY=0.25;exitDx=0;exitDy=0;exitPerimeter=0;" edge="1" parent="1" source="X3A-K_EHV2qNmoM4vE1s-49">
          <mxGeometry width="50" height="50" relative="1" as="geometry">
            <mxPoint x="170" y="1050" as="sourcePoint" />
            <mxPoint y="895" as="targetPoint" />
          </mxGeometry>
        </mxCell>
        <mxCell id="X3A-K_EHV2qNmoM4vE1s-61" style="edgeStyle=orthogonalEdgeStyle;rounded=0;orthogonalLoop=1;jettySize=auto;html=1;exitX=0;exitY=0.25;exitDx=0;exitDy=0;exitPerimeter=0;entryX=0;entryY=0.75;entryDx=0;entryDy=0;entryPerimeter=0;endArrow=none;endFill=0;" edge="1" parent="1" source="X3A-K_EHV2qNmoM4vE1s-53" target="X3A-K_EHV2qNmoM4vE1s-50">
          <mxGeometry relative="1" as="geometry">
            <Array as="points">
              <mxPoint x="270" y="988" />
              <mxPoint x="270" y="925" />
            </Array>
          </mxGeometry>
        </mxCell>
        <mxCell id="X3A-K_EHV2qNmoM4vE1s-62" value="" style="endArrow=none;html=1;rounded=0;" edge="1" parent="1">
          <mxGeometry width="50" height="50" relative="1" as="geometry">
            <mxPoint x="270" y="960" as="sourcePoint" />
            <mxPoint x="240" y="960" as="targetPoint" />
          </mxGeometry>
        </mxCell>
        <mxCell id="X3A-K_EHV2qNmoM4vE1s-63" value="Carry In" style="text;html=1;align=center;verticalAlign=middle;resizable=0;points=[];autosize=1;strokeColor=none;fillColor=none;" vertex="1" parent="1">
          <mxGeometry x="200" y="928" width="70" height="30" as="geometry" />
        </mxCell>
        <mxCell id="X3A-K_EHV2qNmoM4vE1s-64" value="" style="verticalLabelPosition=bottom;shadow=0;dashed=0;align=center;html=1;verticalAlign=top;shape=mxgraph.electrical.logic_gates.logic_gate;operation=or;negating=1;negSize=0.15;" vertex="1" parent="1">
          <mxGeometry x="400" y="1020" width="100" height="60" as="geometry" />
        </mxCell>
        <mxCell id="X3A-K_EHV2qNmoM4vE1s-65" style="edgeStyle=orthogonalEdgeStyle;rounded=0;orthogonalLoop=1;jettySize=auto;html=1;exitX=1;exitY=0.5;exitDx=0;exitDy=0;exitPerimeter=0;entryX=0;entryY=0.75;entryDx=0;entryDy=0;entryPerimeter=0;endArrow=none;endFill=0;" edge="1" parent="1" source="X3A-K_EHV2qNmoM4vE1s-52" target="X3A-K_EHV2qNmoM4vE1s-64">
          <mxGeometry relative="1" as="geometry" />
        </mxCell>
        <mxCell id="X3A-K_EHV2qNmoM4vE1s-66" style="edgeStyle=orthogonalEdgeStyle;rounded=0;orthogonalLoop=1;jettySize=auto;html=1;exitX=1;exitY=0.5;exitDx=0;exitDy=0;exitPerimeter=0;entryX=0;entryY=0.25;entryDx=0;entryDy=0;entryPerimeter=0;endArrow=none;endFill=0;" edge="1" parent="1" source="X3A-K_EHV2qNmoM4vE1s-53" target="X3A-K_EHV2qNmoM4vE1s-64">
          <mxGeometry relative="1" as="geometry" />
        </mxCell>
      </root>
    </mxGraphModel>
  </diagram>
</mxfile>
